<svg xmlns="http://www.w3.org/2000/svg" viewBox="0 0 256 256" role="img" aria-label="OpenRepoCopilot logo">
  <defs>
    <linearGradient id="bg" x1="32" y1="24" x2="224" y2="232" gradientUnits="userSpaceOnUse">
      <stop offset="0" stop-color="#10202a"/>
      <stop offset="0.58" stop-color="#132f35"/>
      <stop offset="1" stop-color="#071116"/>
    </linearGradient>
    <linearGradient id="folder" x1="58" y1="72" x2="196" y2="184" gradientUnits="userSpaceOnUse">
      <stop offset="0" stop-color="#16c8b7"/>
      <stop offset="1" stop-color="#1d6fff"/>
    </linearGradient>
    <linearGradient id="front" x1="54" y1="112" x2="205" y2="202" gradientUnits="userSpaceOnUse">
      <stop offset="0" stop-color="#0f776d"/>
      <stop offset="0.5" stop-color="#0ba9a5"/>
      <stop offset="1" stop-color="#2367f0"/>
    </linearGradient>
    <filter id="softShadow" x="-20%" y="-20%" width="140%" height="150%">
      <feDropShadow dx="0" dy="10" stdDeviation="10" flood-color="#000" flood-opacity="0.28"/>
    </filter>
  </defs>

  <rect width="256" height="256" rx="54" fill="url(#bg)"/>
  <circle cx="199" cy="63" r="16" fill="#f5b84b"/>
  <circle cx="199" cy="63" r="28" fill="#f5b84b" opacity="0.13"/>

  <g filter="url(#softShadow)">
    <path d="M46 86c0-10.5 8.5-19 19-19h43.5c6.1 0 11.8 2.9 15.4 7.8l10 13.2H191c10.5 0 19 8.5 19 19v13H46V86z" fill="url(#folder)"/>
    <path d="M43 111h170l-15.3 78.5c-2 10.1-10.9 17.5-21.2 17.5h-97c-10.4 0-19.3-7.4-21.2-17.6L43 111z" fill="url(#front)"/>
    <path d="M58 124h140l-11.2 55.9c-1.2 6-6.4 10.1-12.5 10.1H82.1c-6.1 0-11.4-4.3-12.6-10.3L58 124z" fill="#0b151b" opacity="0.24"/>
  </g>

  <g fill="none" stroke-linecap="round" stroke-linejoin="round">
    <path d="M91 158l31-28 38 17 25-36" stroke="#d8fff8" stroke-width="11"/>
    <path d="M91 158l31-28 38 17 25-36" stroke="#46f2d1" stroke-width="6"/>
  </g>

  <g>
    <circle cx="91" cy="158" r="14" fill="#0a151a"/>
    <circle cx="91" cy="158" r="8" fill="#4ff4d2"/>
    <circle cx="122" cy="130" r="15" fill="#0a151a"/>
    <circle cx="122" cy="130" r="8" fill="#f5b84b"/>
    <circle cx="160" cy="147" r="15" fill="#0a151a"/>
    <circle cx="160" cy="147" r="8" fill="#40d8ff"/>
    <circle cx="185" cy="111" r="16" fill="#0a151a"/>
    <circle cx="185" cy="111" r="9" fill="#e6fff9"/>
  </g>

  <path d="M147 77l39 16-28 12-12 28-15-40 27 11-11-27z" fill="#e8fff9"/>
  <path d="M153 89l20 8-14 6-6 14-8-21 14 6-6-13z" fill="#1d6fff"/>
</svg>
